<?xml version="1.0" encoding="UTF-8" standalone="no"?>
<svg
   xmlns:dc="http://purl.org/dc/elements/1.1/"
   xmlns:cc="http://creativecommons.org/ns#"
   xmlns:rdf="http://www.w3.org/1999/02/22-rdf-syntax-ns#"
   xmlns:svg="http://www.w3.org/2000/svg"
   xmlns="http://www.w3.org/2000/svg"
   xmlns:xlink="http://www.w3.org/1999/xlink"
   id="svg174"
   viewBox="0 0 540 540"
   height="540pt"
   width="540pt"
   overflow="visible"
   version="1.1"
   fill-rule="evenodd"
   stroke-linejoin="bevel"
   stroke-width="0.501">
  <metadata
     id="metadata178">
    <rdf:RDF>
      <cc:Work
         rdf:about="">
        <dc:format>image/svg+xml</dc:format>
        <dc:type
           rdf:resource="http://purl.org/dc/dcmitype/StillImage" />
        <dc:title></dc:title>
      </cc:Work>
    </rdf:RDF>
  </metadata>
  <defs
     id="defs96">
    <linearGradient
       id="linearGradient1645">
      <stop
         style="stop-color:#ff8f0e;stop-opacity:1;"
         offset="0"
         id="stop1641" />
      <stop
         style="stop-color:#df5809;stop-opacity:1"
         offset="1"
         id="stop1643" />
    </linearGradient>
    <linearGradient
       gradientTransform="translate(228.351 367.899)"
       y2="-46.68"
       x2="42.075"
       y1="0"
       x1="0"
       gradientUnits="userSpaceOnUse"
       id="LinearGradient">
      <stop
         id="stop2"
         stop-color="#ffffff"
         offset="0" />
      <stop
         id="stop4"
         stop-color="#000000"
         offset="1" />
    </linearGradient>
    <linearGradient
       gradientTransform="translate(92.601 287.649)"
       y2="-15"
       x2="-47.25"
       y1="0"
       x1="0"
       gradientUnits="userSpaceOnUse"
       id="LinearGradient_1">
      <stop
         id="stop7"
         stop-color="#252525"
         offset="0" />
      <stop
         id="stop9"
         stop-color="#000000"
         offset="1" />
    </linearGradient>
    <radialGradient
       gradientTransform="translate(142.762 261.077) rotate(-2.0837) scale(1 1.07829)"
       r="34.819"
       cy="0"
       cx="0"
       gradientUnits="userSpaceOnUse"
       id="RadialGradient">
      <stop
         id="stop12"
         stop-color="#666666"
         offset="0" />
      <stop
         id="stop14"
         stop-color="#000000"
         offset="1" />
    </radialGradient>
    <linearGradient
       gradientTransform="translate(218.601 299.649)"
       y2="-26.25"
       x2="-77.25"
       y1="0"
       x1="0"
       gradientUnits="userSpaceOnUse"
       id="LinearGradient_2">
      <stop
         id="stop17"
         stop-color="#2e2e2e"
         offset="0" />
      <stop
         id="stop19"
         stop-color="#000000"
         offset="1" />
    </linearGradient>
    <linearGradient
       gradientTransform="translate(88.101 118.149)"
       y2="48.75"
       x2="-0.75"
       y1="0"
       x1="0"
       gradientUnits="userSpaceOnUse"
       id="LinearGradient_3">
      <stop
         id="stop22"
         stop-color="#ffffff"
         offset="0" />
      <stop
         id="stop24"
         stop-color="#000000"
         offset="1" />
    </linearGradient>
    <linearGradient
       gradientTransform="translate(289.101 229.899)"
       y2="13.654"
       x2="-49.383"
       y1="0"
       x1="0"
       gradientUnits="userSpaceOnUse"
       id="LinearGradient_4">
      <stop
         id="stop27"
         stop-color="#ffffff"
         offset="0" />
      <stop
         id="stop29"
         stop-color="#000000"
         offset="1" />
    </linearGradient>
    <linearGradient
       gradientTransform="translate(8.601 355.149)"
       y2="-48"
       x2="28.5"
       y1="0"
       x1="0"
       gradientUnits="userSpaceOnUse"
       id="LinearGradient_5">
      <stop
         id="stop32"
         stop-color="#ffffff"
         offset="0" />
      <stop
         id="stop34"
         stop-color="#000000"
         offset="1" />
    </linearGradient>
    <linearGradient
       gradientTransform="translate(77.601 348.399)"
       y2="-38.25"
       x2="82.5"
       y1="0"
       x1="0"
       gradientUnits="userSpaceOnUse"
       id="LinearGradient_6">
      <stop
         id="stop37"
         stop-color="#ffffff"
         offset="0" />
      <stop
         id="stop39"
         stop-color="#000000"
         offset="1" />
    </linearGradient>
    <linearGradient
       gradientTransform="matrix(1,0,0,-1,364.747,425.972)"
       y2="313.023"
       x2="44.948"
       y1="0"
       x1="0"
       gradientUnits="userSpaceOnUse"
       id="LinearGradient_7">
      <stop
         id="stop42"
         stop-color="#ce3d03"
         offset="0" />
      <stop
         id="stop44"
         stop-color="#ffb13a"
         offset="0.286779999732971" />
      <stop
         id="stop46"
         stop-color="#ffa023"
         offset="0.631937563419342" />
      <stop
         id="stop48"
         stop-color="#ffac38"
         offset="0.874374508857727" />
      <stop
         id="stop50"
         stop-color="#ff9113"
         offset="1" />
    </linearGradient>
    <linearGradient
       gradientTransform="matrix(1,0,0,-1,338.193,314.773)"
       y2="8.526"
       x2="-45.648"
       y1="0"
       x1="0"
       gradientUnits="userSpaceOnUse"
       id="LinearGradient_8">
      <stop
         id="stop53"
         stop-color="#c02300"
         offset="0"
         style="stop-color:#ff981a;stop-opacity:1" />
      <stop
         id="stop55"
         stop-color="#ff8f0e"
         offset="0.19462014734745" />
      <stop
         id="stop57"
         stop-color="#ff8f0e"
         offset="0.334189713001251" />
      <stop
         id="stop59"
         stop-color="#ffb13c"
         offset="0.671740293502808" />
      <stop
         id="stop61"
         stop-color="#ff8f0e"
         offset="1" />
    </linearGradient>
    <linearGradient
       gradientTransform="translate(375.28,248.72)"
       y2="20.4"
       x2="-5.4"
       y1="0"
       x1="0"
       gradientUnits="userSpaceOnUse"
       id="LinearGradient_9">
      <stop
         id="stop64"
         stop-color="#c02300"
         offset="0" />
      <stop
         id="stop66"
         stop-color="#ff8f0e"
         offset="1" />
    </linearGradient>
    <radialGradient
       gradientTransform="matrix(0.35478878,-0.93494648,1.700303,0.64522243,452.932,154.98)"
       r="67.293"
       cy="0"
       cx="0"
       gradientUnits="userSpaceOnUse"
       id="RadialGradient_1">
      <stop
         id="stop69"
         stop-color="#ff8f0e"
         offset="0" />
      <stop
         id="stop71"
         stop-color="#e86908"
         offset="0.308551639318466" />
      <stop
         id="stop73"
         stop-color="#c02300"
         offset="0.502084791660309" />
      <stop
         id="stop75"
         stop-color="#c02300"
         offset="1" />
    </radialGradient>
    <radialGradient
       gradientTransform="matrix(-0.29250523,0.95626392,-1.6707843,-0.51106513,357.28,334.519)"
       r="91.573"
       cy="0"
       cx="0"
       gradientUnits="userSpaceOnUse"
       id="RadialGradient_2">
      <stop
         id="stop78"
         stop-color="#c02300"
         offset="0" />
      <stop
         id="stop80"
         stop-color="#c02300"
         offset="0.563193500041962" />
      <stop
         id="stop82"
         stop-color="#eb6b09"
         offset="0.653081893920898" />
      <stop
         id="stop84"
         stop-color="#ff8f0e"
         offset="1" />
    </radialGradient>
    <radialGradient
       gradientTransform="matrix(0.66026649,-0.7510314,4.0214126,3.5354101,441.553,315.031)"
       r="56.795"
       cy="0"
       cx="0"
       gradientUnits="userSpaceOnUse"
       id="RadialGradient_3">
      <stop
         id="stop87"
         stop-color="#ff8f0e"
         offset="0" />
      <stop
         id="stop89"
         stop-color="#d94c05"
         offset="0.467391312122345" />
      <stop
         id="stop91"
         stop-color="#c02300"
         offset="0.58695650100708" />
      <stop
         id="stop93"
         stop-color="#c02300"
         offset="1" />
    </radialGradient>
    <mask
       id="TranspMask">
      <rect
         style="fill:url(#LinearGradient);stroke:none"
         x="-10%"
         y="-10%"
         width="120.00001%"
         height="120.00001%"
         id="rect104" />
    </mask>
    <filter
       style="color-interpolation-filters:sRGB"
       id="filter1059"
       x="-0.11646412"
       width="1.2329282"
       y="-0.17845373"
       height="1.3569075">
      <feGaussianBlur
         stdDeviation="12.315984"
         id="feGaussianBlur1061" />
    </filter>
    <filter
       style="color-interpolation-filters:sRGB"
       id="filter1063"
       x="-0.094071559"
       width="1.1881431"
       y="-0.049123658"
       height="1.0982473">
      <feGaussianBlur
         stdDeviation="2.67516"
         id="feGaussianBlur1065" />
    </filter>
    <filter
       style="color-interpolation-filters:sRGB"
       id="filter1067"
       x="-0.16454221"
       width="1.3290844"
       y="-0.52048584"
       height="2.0409717">
      <feGaussianBlur
         stdDeviation="2.0053581"
         id="feGaussianBlur1069" />
    </filter>
    <filter
       style="color-interpolation-filters:sRGB"
       id="filter1079"
       x="-0.045461326"
       width="1.0909227"
       y="-0.1000172"
       height="1.2000344">
      <feGaussianBlur
         stdDeviation="3.7840548"
         id="feGaussianBlur1081" />
    </filter>
    <filter
       style="color-interpolation-filters:sRGB"
       id="filter1083"
       x="-0.078551851"
       width="1.1571037"
       y="-0.088764185"
       height="1.1775284">
      <feGaussianBlur
         stdDeviation="3.3898302"
         id="feGaussianBlur1085" />
    </filter>
    <filter
       style="color-interpolation-filters:sRGB"
       id="filter1087"
       x="-0.17590052"
       width="1.351801"
       y="-0.32885225"
       height="1.6577045">
      <feGaussianBlur
         stdDeviation="2.5141314"
         id="feGaussianBlur1089" />
    </filter>
    <filter
       style="color-interpolation-filters:sRGB"
       id="filter1091"
       x="-0.11347256"
       width="1.2269451"
       y="-0.15765849"
       height="1.315317">
      <feGaussianBlur
         stdDeviation="4.5133241"
         id="feGaussianBlur1093" />
    </filter>
    <mask
       id="TranspMask_8">
      <rect
         id="rect148"
         height="120.00001%"
         width="120.00001%"
         y="-10%"
         x="-10%"
         style="fill:#4c4c4c;stroke:none" />
    </mask>
    <linearGradient
       xlink:href="#RadialGradient_3"
       id="linearGradient1333"
       x1="421.78741"
       y1="384.5051"
       x2="485.91016"
       y2="396.37012"
       gradientUnits="userSpaceOnUse" />
    <filter
       style="color-interpolation-filters:sRGB"
       id="filter1335"
       x="-0.16985507"
       width="1.3397101"
       y="-0.038302986"
       height="1.076606">
      <feGaussianBlur
         stdDeviation="5.4542167"
         id="feGaussianBlur1337" />
    </filter>
    <filter
       style="color-interpolation-filters:sRGB"
       id="filter1345"
       x="-0.2033626"
       width="1.4067252"
       y="-0.076453408"
       height="1.1529068">
      <feGaussianBlur
         stdDeviation="2.731075"
         id="feGaussianBlur1347" />
    </filter>
    <filter
       style="color-interpolation-filters:sRGB"
       id="filter1353"
       x="-0.17947734"
       width="1.3589547"
       y="-0.060318543"
       height="1.1206371">
      <feGaussianBlur
         stdDeviation="2.3861513"
         id="feGaussianBlur1355" />
    </filter>
    <filter
       style="color-interpolation-filters:sRGB"
       id="filter1537"
       x="-0.020260269"
       width="1.0405205"
       y="-0.029432847"
       height="1.0588657">
      <feGaussianBlur
         stdDeviation="2.31092"
         id="feGaussianBlur1539" />
    </filter>
    <filter
       style="color-interpolation-filters:sRGB"
       id="filter1549"
       x="-0.011980823"
       width="1.0239616"
       y="-0.012019239"
       height="1.0240385">
      <feGaussianBlur
         stdDeviation="1.4440386"
         id="feGaussianBlur1551" />
    </filter>
    <filter
       style="color-interpolation-filters:sRGB"
       id="filter1613"
       x="-0.022699222"
       width="1.0453984"
       y="-0.008155789"
       height="1.0163116">
      <feGaussianBlur
         stdDeviation="0.88686749"
         id="feGaussianBlur1615" />
    </filter>
    <radialGradient
       xlink:href="#RadialGradient_3"
       id="radialGradient1627"
       gradientUnits="userSpaceOnUse"
       gradientTransform="matrix(0.66026649,-0.7510314,4.0214126,3.5354101,441.553,315.031)"
       cx="0"
       cy="0"
       r="56.795" />
    <linearGradient
       xlink:href="#linearGradient1645"
       id="linearGradient1647"
       x1="395.75363"
       y1="396.37012"
       x2="453.69751"
       y2="407.15649"
       gradientUnits="userSpaceOnUse" />
    <filter
       height="1.3996707"
       y="-0.19983533"
       width="1.1263487"
       x="-0.063174334"
       id="filter966"
       style="color-interpolation-filters:sRGB">
      <feGaussianBlur
         id="feGaussianBlur968"
         stdDeviation="0.7699372" />
    </filter>
    <filter
       height="1.0555766"
       y="-0.027788303"
       width="1.0422414"
       x="-0.021120676"
       id="filter974"
       style="color-interpolation-filters:sRGB">
      <feGaussianBlur
         id="feGaussianBlur976"
         stdDeviation="1.98691" />
    </filter>
  </defs>
  <path
     id="path99"
     d="M 64.621,205.061 H 13.528 l 50.156,187.967 54.375,0.469 32.343,-120.468 32.813,119.999 54.374,-0.469 49.687,-186.092 H 239.464 L 208.527,333.029 176.183,205.998 127.434,205.53 93.215,332.092 Z"
     style="font-size:16px;font-family:'Times New Roman';fill:#000000;fill-opacity:1;stroke:none;stroke-width:0.352;stroke-linejoin:miter;stroke-miterlimit:79.84031677;stroke-opacity:0.29803898;marker-start:none;marker-end:none;filter:url(#filter1537);opacity:0.4" />
  <path
     id="path101"
     d="M 60.093,199.361 H 9 l 50.156,187.967 54.375,0.469 32.343,-120.468 32.813,119.999 54.374,-0.469 49.687,-186.092 H 234.936 L 203.999,327.329 171.655,200.298 122.906,199.83 88.687,326.392 Z"
     style="font-size:16px;font-family:'Times New Roman';fill:#0001f2;fill-opacity:0.964706;stroke:#0000cb;stroke-width:1.55175;stroke-linejoin:miter;stroke-miterlimit:79.84031677;stroke-opacity:1;marker-start:none;marker-end:none;stroke-dasharray:none" />
  <path
     style="font-size:16px;font-family:'Times New Roman';fill:#ffffff;stroke:none;stroke-width:0.352;stroke-linejoin:miter;stroke-miterlimit:79.84031677;marker-start:none;marker-end:none;filter:url(#filter966)"
     d="m 265.984,333.054 -29.25,-0.75 c 4.118,-6.132 12.548,-9.462 19.5,-8.25 4.357,0.759 8.082,2.695 9.75,9 z"
     stroke-miterlimit="79.8403193612775"
     mask="url(#TranspMask)"
     id="path107"
     transform="matrix(1,0,0,-1,0,540)" />
  <g
     style="font-size:16px;font-family:'Times New Roman';fill:#000000;stroke:none;stroke-width:0.352;stroke-linejoin:miter;stroke-miterlimit:79.84031677;filter:url(#filter974)"
     id="Group_1"
     stroke-miterlimit="79.8403193612775"
     transform="matrix(1,0,0,-1,0,540)">
    <mask
       id="TranspMask_1">
      <rect
         style="fill:url(#LinearGradient_1);stroke:none"
         x="-10%"
         y="-10%"
         width="120.00001%"
         height="120.00001%"
         id="rect109" />
    </mask>
    <path
       style="stroke-opacity:0.14509798;marker-start:none;marker-end:none;filter:url(#filter1353)"
       d="m 74.601,220.899 -21.75,93 12.823,1.942 19.085,-84.784 z"
       mask="url(#TranspMask_1)"
       id="path112" />
    <mask
       id="TranspMask_2">
      <rect
         style="fill:url(#RadialGradient);stroke:none"
         x="-10%"
         y="-10%"
         width="120.00001%"
         height="120.00001%"
         id="rect114" />
    </mask>
    <path
       style="stroke-opacity:0.17254902;marker-start:none;marker-end:none"
       d="m 111.88,259.811 c 0,21.478 14.712,38.911 32.839,38.911 18.127,0 32.839,-17.433 32.839,-38.911 0,-15.426 -7.589,-28.765 -18.582,-35.058 l -0.036,0.134 -13.066,47.784 -13.155,-48.999 -0.022,-0.079 c -12.186,5.688 -20.817,19.766 -20.817,36.218 z"
       mask="url(#TranspMask_2)"
       id="path117" />
    <mask
       id="TranspMask_3">
      <rect
         style="fill:url(#LinearGradient_2);stroke:none"
         x="-10%"
         y="-10%"
         width="120.00001%"
         height="120.00001%"
         id="rect119" />
    </mask>
    <path
       style="stroke-opacity:0.18039198;marker-start:none;marker-end:none;filter:url(#filter1345)"
       d="m 190.101,232.899 -25.5,83.25 12.418,2.483 19.813,-77.814 z"
       mask="url(#TranspMask_3)"
       id="path122" />
    <mask
       id="TranspMask_4">
      <rect
         style="fill:url(#LinearGradient_3);stroke:none"
         x="-10%"
         y="-10%"
         width="120.00001%"
         height="120.00001%"
         id="rect124" />
    </mask>
    <path
       style="marker-start:none;marker-end:none"
       d="m 113.531,152.203 -54.375,0.469 -3.797,14.227 h 62.117 z m 65.156,0.469 -3.891,14.227 h 61.938 l -3.673,-13.758 z"
       mask="url(#TranspMask_4)"
       id="path127" />
    <mask
       id="TranspMask_5">
      <rect
         style="fill:url(#LinearGradient_4);stroke:none"
         x="-10%"
         y="-10%"
         width="120.00001%"
         height="120.00001%"
         id="rect129" />
    </mask>
    <path
       style="marker-start:none;marker-end:none"
       d="m 214.427,152.98 36.424,149.669 c 5.305,11.005 14.466,18.156 27.778,21.158 L 233.061,153.141 Z"
       mask="url(#TranspMask_5)"
       id="path132" />
  </g>
  <g
     style="font-size:16px;font-family:'Times New Roman';fill:#ffffff;stroke:none;stroke-width:0.352;stroke-linejoin:miter;stroke-miterlimit:79.84031677"
     id="Group_2"
     stroke-miterlimit="79.8403193612775"
     transform="matrix(1,0,0,-1,0,540)">
    <mask
       id="TranspMask_6">
      <rect
         style="fill:url(#LinearGradient_5);stroke:none"
         x="-10%"
         y="-10%"
         width="120.00001%"
         height="120.00001%"
         id="rect135" />
    </mask>
    <path
       style="marker-start:none;marker-end:none;filter:url(#filter1067)"
       d="m 48.351,331.149 -29.25,-0.75 c 4.118,-6.132 12.548,-9.462 19.5,-8.25 4.357,0.759 8.082,2.695 9.75,9 z"
       mask="url(#TranspMask_6)"
       id="path138" />
    <path
       style="fill-opacity:0.18039198;stroke-opacity:0.18039198;marker-start:none;marker-end:none;filter:url(#filter1059)"
       d="M 48.693,329.239 H 20.4 l 44.456,-165.167 40.125,-0.469 40.893,146.118 41.363,-145.649 42.974,0.469 43.987,163.292 H 240.636 L 203.999,181.321 163.105,328.302 131.456,328.77 88.687,185.108 Z"
       id="path140" />
    <mask
       id="TranspMask_7">
      <rect
         style="fill:url(#LinearGradient_6);stroke:none"
         x="-10%"
         y="-10%"
         width="120.00001%"
         height="120.00001%"
         id="rect142" />
    </mask>
    <path
       style="marker-start:none;marker-end:none;filter:url(#filter1063)"
       d="m 160.101,331.899 -33.88,0.28 -34.37,-123.28 c 1.223,-7.83 4.582,-9.254 9.75,-5.25 l 33,120 c 8.653,0.942 20.816,-0.633 25.5,8.25 z"
       mask="url(#TranspMask_7)"
       id="path145" />
  </g>
  <path
     style="font-size:16px;font-family:'Times New Roman';fill:#000000;fill-opacity:1;stroke:none;stroke-width:0.352;stroke-linejoin:miter;stroke-miterlimit:79.84031677;marker-start:none;marker-end:none;opacity:0.5;filter:url(#filter1549)"
     d="m 529.888,337.535 c -40.313,58.124 -64.219,22.5 -106.406,-63.281 95.156,-41.719 101.569,-102.4 65.624,-135 -46.406,-35.625 -178.128,-24.798 -233.435,43.125 -10.254,12.593 -17.813,29.531 3.75,53.437 26.25,-54.843 134.53,-113.905 196.873,-65.624 18.75,30.937 -13.125,68.906 -50.625,79.218 -26.154,-5.379 -44.773,4.786 -51.093,40.313 6.713,4.618 15.001,6.48 26.718,2.343 43.092,97.949 89.311,164.842 151.875,69.375 2.735,-12.471 2.434,-21.375 -3.281,-23.906 z"
     id="path151" />
  <path
     style="font-size:16px;font-family:'Times New Roman';fill:#000000;fill-opacity:1;stroke:none;stroke-width:0.352;stroke-linejoin:miter;stroke-miterlimit:79.84031677;marker-start:none;marker-end:none;filter:url(#filter1613);opacity:0.5"
     d="m 329.587,422.602 c -1.082,-1.994 -2.737,-5.034 -3.206,-9.721 11.718,-75.468 27.89,-148.71 42.58,-223.246 -1.197,-25.437 -30.276,-15.23 -58.283,-4.683 2.328,5.876 4.608,9.512 6.914,11.484 -7.149,57.305 -27.337,146.549 -42.379,221.947 -0.814,19.234 22.189,22.5 54.374,4.219 z"
     id="path153" />
  <path
     style="font-size:16px;font-family:'Times New Roman';fill:url(#LinearGradient_7);stroke:#ff8f0e;stroke-width:1.55175;stroke-linejoin:miter;stroke-miterlimit:79.84031677;marker-start:none;marker-end:none;stroke-opacity:1;stroke-dasharray:none"
     d="m 524.277,331.122 c -40.313,58.124 -64.219,22.5 -106.406,-63.281 95.156,-41.719 101.569,-102.4 65.624,-135 -46.406,-35.625 -178.128,-24.798 -233.435,43.125 -10.254,12.593 -17.813,29.531 3.75,53.437 26.25,-54.843 134.53,-113.905 196.873,-65.624 18.75,30.937 -13.125,68.906 -50.625,79.218 -26.154,-5.379 -44.773,4.786 -51.093,40.313 6.713,4.618 15.001,6.48 26.718,2.343 43.092,97.949 89.311,164.842 151.875,69.375 2.735,-12.471 2.434,-21.375 -3.281,-23.906 z"
     id="path156" />
  <path
     style="font-size:16px;font-family:'Times New Roman';fill:url(#LinearGradient_8);stroke:none;stroke-width:0.352;stroke-linejoin:miter;stroke-miterlimit:79.84031677;marker-start:none;marker-end:none"
     d="m 325.059,416.902 c -1.082,-1.994 -2.737,-5.034 -3.206,-9.721 11.718,-75.468 27.89,-148.71 42.58,-223.246 -1.197,-25.437 -30.276,-15.23 -58.283,-4.683 2.328,5.876 4.608,9.512 6.914,11.484 -7.149,57.305 -27.337,146.549 -42.379,221.947 -0.814,19.234 22.189,22.5 54.374,4.219 z"
     id="path158" />
  <path
     id="path162"
     d="m 350.048,255.977 c 12.315,3.983 23.962,8.592 34.303,14.422 l -7.971,-17.619 -0.003,-0.008 c -0.232,0.523 -0.463,1.048 -0.694,1.575 -11.095,-3.918 -19.115,-2.457 -25.635,1.63 z"
     style="font-size:16px;font-family:'Times New Roman';fill:url(#LinearGradient_9);stroke:none;stroke-width:0.352;stroke-linejoin:miter;stroke-miterlimit:79.84031677;marker-start:none;marker-end:none;filter:url(#filter1087)"
     transform="matrix(1,0,0,-1,0,540)" />
  <path
     id="path164"
     d="m 434.469,154.37 c 37.669,-13.969 72.683,-0.338 87.132,34.279 2.849,5.743 4.36,11.486 5.463,17.23 3.649,-3.665 3.542,-11.751 1.191,-22.474 -35.785,-54.604 -66.222,-56.093 -93.786,-29.035 z"
     style="font-size:16px;font-family:'Times New Roman';fill:url(#RadialGradient_1);stroke:none;stroke-width:0.352;stroke-linejoin:miter;stroke-miterlimit:79.84031677;marker-start:none;marker-end:none;filter:url(#filter1091)"
     transform="matrix(1,0,0,-1,0,540)" />
  <path
     id="path166"
     d="m 252.566,312.57 c -0.928,7.095 -1.024,14.13 2.084,20.194 32.129,62.688 148.209,92.889 197.116,42.744 -62.343,48.281 -170.623,-10.781 -196.873,-65.624 -0.817,0.905 -1.592,1.8 -2.327,2.686 z"
     style="font-size:16px;font-family:'Times New Roman';fill:url(#RadialGradient_2);stroke:none;stroke-width:0.352;stroke-linejoin:miter;stroke-miterlimit:79.84031677;marker-start:none;marker-end:none;filter:url(#filter1079)"
     transform="matrix(1,0,0,-1,0,540)" />
  <path
     id="path168"
     d="m 418.111,272.268 -15.76,7.881 c 74.687,26.459 98.588,59.024 101.335,83.771 10.084,-32.971 -13.188,-59.844 -85.571,-91.654 z"
     style="font-size:16px;font-family:'Times New Roman';fill:url(#radialGradient1627);stroke:none;stroke-width:0.352;stroke-linejoin:miter;stroke-miterlimit:79.84031677;marker-start:none;marker-end:none;filter:url(#filter1083)"
     transform="matrix(1,0,0,-1,0,540)" />
  <path
     style="font-size:16px;font-family:'Times New Roman';fill:url(#linearGradient1647);fill-opacity:1;stroke:none;stroke-width:0.46900001;stroke-linejoin:miter;stroke-miterlimit:4;stroke-dasharray:none;marker-start:none;marker-end:none;filter:url(#filter1335)"
     d="m 473.52734,225.49414 -64.68359,341.75195 c 7.57259,-2.64456 15.80994,-6.40219 24.56836,-11.37695 -1.44267,-2.65867 -3.65006,-6.7116 -4.27539,-12.96094 15.624,-100.624 37.18677,-198.28077 56.77344,-297.66211 -0.52771,-11.21412 -5.12204,-17.22774 -12.38282,-19.75195 z"
     id="path1113"
     transform="matrix(0.75,0,0,0.75,4.6e-4,-1.5e-4)" />
</svg>
